# xmcd CD database file
#
# Track frame offsets:
#	150
#	19532
#	66503
#	96379
#	122989
#	160991
#	183008
#	213108
#	230844
#	270056
#
# Disc length: 3802 seconds
#
# Revision: 0
# Processed by: cddbd v1.5.2PL0 Copyright (c) Steve Scherf et al.
# Submitted via: CDex 1.70beta2
#
DISCID=830ed80a
DTITLE=Daniel Zamir - I Believe
DYEAR=2008
DGENRE=Jazz
TTITLE0=7 Midot
TTITLE1=Poem 51/52
TTITLE2=Poem 54 (770)
TTITLE3=Love
TTITLE4=Poem 10
TTITLE5=Let me in under your wing
TTITLE6=The fifth letter in the hebrew alphabet
TTITLE7=You are my G-D
TTITLE8=Nine Minute (or so) Chabad nigun
TTITLE9=I BELIEVE
EXTD=YEAR: 2008
EXTT0=
EXTT1=
EXTT2=
EXTT3=
EXTT4=
EXTT5=
EXTT6=
EXTT7=
EXTT8=
EXTT9=
PLAYORDER=
